# xmcd
#
# Track frame offsets:
#	150
#	995
#	15008
#	30655
#	50565
#	65067
#	88296
#
# Disc length: 1688 seconds
#
# Revision: 0
# Processed by: cddbd v1.5PL3 Copyright (c) Steve Scherf et al.
# Submitted via: dBpowerAMP V4.0
#
DISCID=4a069607
DTITLE=Ears to Hear - From the Pulpit to the Tabloids
DYEAR=1999
DGENRE=R&B
TTITLE0=Intro
TTITLE1=This Ones for the People
TTITLE2=Eyes Closed Tight
TTITLE3=Daddy
TTITLE4=Turn Me Around
TTITLE5=Tears of Heaven
TTITLE6=Can You Hear Me
EXTD=
EXTT0=
EXTT1=
EXTT2=
EXTT3=
EXTT4=
EXTT5=
EXTT6=
PLAYORDER=
